<svg width="75.000000" height="50.000000" viewBox="0 0 75 50" fill="none" xmlns="http://www.w3.org/2000/svg" xmlns:xlink="http://www.w3.org/1999/xlink">
	<desc>
			Created with Pixso.
	</desc>
	<defs/>
	<path id="Vector" d="M73.39 7.84C72.96 6.33 72.14 4.96 71 3.87C69.82 2.76 68.39 1.96 66.82 1.56C60.95 0.01 37.46 0.01 37.46 0.01C27.66 -0.1 17.87 0.39 8.13 1.48C6.56 1.91 5.13 2.73 3.95 3.85C2.8 4.96 1.96 6.33 1.52 7.84C0.47 13.5 -0.04 19.24 0 25C-0.04 30.74 0.47 36.49 1.52 42.15C1.95 43.65 2.78 45.01 3.94 46.12C5.1 47.22 6.54 48.02 8.13 48.44C14.07 49.98 37.46 49.98 37.46 49.98C47.26 50.09 57.07 49.6 66.82 48.51C68.39 48.11 69.82 47.31 71 46.19C72.15 45.09 72.97 43.72 73.39 42.23C74.46 36.57 74.99 30.82 74.95 25.07C75.03 19.28 74.51 13.51 73.39 7.84L73.39 7.84ZM29.98 35.69L29.98 14.3L49.54 25L29.98 35.69Z" fill="#FFFFFF" fill-opacity="0.400000" fill-rule="nonzero"/>
</svg>
